<svg xmlns="http://www.w3.org/2000/svg" viewBox="0 0 45 45"><g fill="none" fill-rule="evenodd" stroke="#000" stroke-width="1.5" stroke-linecap="round" stroke-linejoin="round"><path d="M22.5 10c1.5-1.5 3.5-2.5 6-2.5s4.5 1 6 2.5L31 17c-1.5 1.5-2.5 3-2.5 5.5v3.5h-2.5s-3.5-2.5-3.5-5c0-1.5 1-3 1-3l-2-4.5s-1.5 0-2.5 1.5L16 10c1.5-1.5 3.5-2.5 6.5-2.5z" fill="#000" stroke="#000" /><path d="M14.5 37.5c5.5 3.5 15.5 3.5 21 0v-7.5s7.5-4.5 6-10.5c-4 6-11.5 9.5-16.5 9.5S10 26 6 19.5C9 25 11.5 30 14.5 30z" fill="#000" stroke="#000" /><path d="M14.5 30c5.5-3 15.5-3 21 0m-21 7.5c5.5 3.5 15.5 3.5 21 0" fill="none" stroke="#000" stroke-linecap="butt" /></g></svg>