<svg xmlns="http://www.w3.org/2000/svg" viewBox="0 0 45 45"><g fill="#000" fill-rule="evenodd" stroke="#000" stroke-width="1.5" stroke-linecap="round" stroke-linejoin="round"><path d="M22.5 11.63V6" /><path d="M22.5 25s4.5-7.5 3-10.5c0 0-1.5 0-3 .5s-3-.5-3-.5c-1.5 3 3 10.5 3 10.5" /><path d="M11.5 37c5.5 3.5 15.5 3.5 21 0v-7s9-4.5 6-10.5c-4 6-11.5 9.5-16.5 9.5S10 26 6 19.5C9 25 11.5 30 11.5 30z" /><path d="M11.5 30c5.5-3 15.5-3 21 0m-21 7c5.5 3.5 15.5 3.5 21 0m-11 4.5h.5" stroke-linecap="butt" /></g></svg>