<svg xmlns="http://www.w3.org/2000/svg" viewBox="0 0 45 45"><g fill="#000" fill-rule="evenodd" stroke="#000" stroke-width="1.5" stroke-linecap="round" stroke-linejoin="round"><path d="M8 12a2 2 0 1 1-4 0 2 2 0 1 1 4 0zm14.5 1.5a2 2 0 1 1-4 0 2 2 0 1 1 4 0zm14.5 0a2 2 0 1 1-4 0 2 2 0 1 1 4 0zM41 12a2 2 0 1 1-4 0 2 2 0 1 1 4 0zm-14.5 1.5a2 2 0 1 1-4 0 2 2 0 1 1 4 0zM11.5 28c2-2 7-4.5 11-4.5s9 2.5 11 4.5c1.5 1.5.5 3.5-1 4.5-1.5 1-4.5 1-4.5 1H17s-3 0-4.5-1c-1.5-1-2.5-3-1-4.5z" /><path d="M11.5 28c-.5 4.5 3.5 8.5 11 8.5s11.5-4 11-8.5" fill="none" /><path d="M11.5 14.5S10 18 10 23c0 4.5 1.5 7 1.5 7M33.5 14.5S35 18 35 23c0 4.5-1.5 7-1.5 7M11.5 14.5C13 12 17 10 22.5 10c5.5 0 9.5 2 11 4.5" /><path d="M11.5 14.5h22M11.5 28c2-2 7-4.5 11-4.5s9 2.5 11 4.5" fill="none" /><path d="M11.5 28c-.5 4.5 3.5 8.5 11 8.5s11.5-4 11-8.5M17 33.5h11M11.5 14.5S10 18 10 23c0 4.5 1.5 7 1.5 7M33.5 14.5S35 18 35 23c0 4.5-1.5 7-1.5 7M11.5 14.5C13 12 17 10 22.5 10c5.5 0 9.5 2 11 4.5" fill="none" /></g></svg>