<svg xmlns="http://www.w3.org/2000/svg" viewBox="0 0 45 45"><g fill="none" fill-rule="evenodd" stroke="#000" stroke-width="1.5" stroke-linecap="round" stroke-linejoin="round"><path d="M9 36c3.39-.97 10.11.43 13.5 0 3.39.43 10.11-.97 13.5 0" fill="#fff" /><path d="M15 32c2.5 2.5 12.5 2.5 15 0 .5-1.5 0-2 0-2 0-2.5-2.5-4-2.5-4 5.5-1.5 6-11.5-5-15.5-11 4-10.5 14-5 15.5 0 0-2.5 1.5-2.5 4 0 0-.5.5 0 2zM24.5 28c-1.5-1.5-1.5-4 0-5.5 .5-.5 1.5-.5 2 0 1.5 1.5 1.5 4 0 5.5-.5.5-1.5.5-2 0z" fill="#fff" /><path d="M17.5 26h10M15 32c2.5 2.5 12.5 2.5 15 0M20.5 10.5c-1.5 0-2.5 1-2.5 2.5s1 2.5 2.5 2.5 2.5-1 2.5-2.5-1-2.5-2.5-2.5z" fill="none" transform="translate(2 2)" /><path d="M9 36c3.39-.97 10.11.43 13.5 0 3.39.43 10.11-.97 13.5 0" fill="none" /></g></svg>