<svg xmlns="http://www.w3.org/2000/svg" viewBox="0 0 45 45"><g fill="#fff" fill-rule="evenodd" stroke="#000" stroke-width="1.5" stroke-linecap="round" stroke-linejoin="round"><path d="M22.5 11.5L31 20l-8.5 8.5L14 20l8.5-8.5zM22.5 11.5V6M14 20h17M19.5 24v4.5M25.5 24v4.5M14 20s-1.5 4.5-1.5 8V36h17v-8c0-3.5-1.5-8-1.5-8" /><path d="M12.5 36c5.5 3.5 15.5 3.5 21 0" fill="none" /><path d="M12.5 36v-7.5h21V36M12.5 28.5s-1.5 4.5-1.5 8M33.5 28.5s1.5 4.5 1.5 8" fill="none" /><path d="M12.5 28.5h21" /><path d="M22.5 6V4M20 8h5" fill="none" /></g></svg>